<mxfile host="app.diagrams.net" agent="Mozilla/5.0 (Windows NT 10.0; Win64; x64) AppleWebKit/537.36 (KHTML, like Gecko) Chrome/133.0.0.0 Safari/537.36" version="26.0.16">
  <diagram name="Página-1" id="g5fUxCn4HUF5k6jVXiy7">
    <mxGraphModel dx="1674" dy="746" grid="1" gridSize="10" guides="1" tooltips="1" connect="1" arrows="1" fold="1" page="1" pageScale="1" pageWidth="2910" pageHeight="1030" math="0" shadow="0">
      <root>
        <mxCell id="0" />
        <mxCell id="1" parent="0" />
        <mxCell id="JzyulNl6e5APR63eF1yB-1" value="Generar número para facturar desde concurrencia" style="swimlane;html=1;childLayout=stackLayout;resizeParent=1;resizeParentMax=0;horizontal=1;startSize=20;horizontalStack=0;whiteSpace=wrap;" vertex="1" parent="1">
          <mxGeometry x="100" y="30" width="1180" height="380" as="geometry" />
        </mxCell>
        <mxCell id="JzyulNl6e5APR63eF1yB-2" value="Lane 1" style="swimlane;html=1;startSize=20;horizontal=0;" vertex="1" parent="JzyulNl6e5APR63eF1yB-1">
          <mxGeometry y="20" width="1180" height="120" as="geometry" />
        </mxCell>
        <mxCell id="JzyulNl6e5APR63eF1yB-3" value="Lane 2" style="swimlane;html=1;startSize=20;horizontal=0;" vertex="1" parent="JzyulNl6e5APR63eF1yB-1">
          <mxGeometry y="140" width="1180" height="120" as="geometry" />
        </mxCell>
        <mxCell id="JzyulNl6e5APR63eF1yB-4" value="Lane 3" style="swimlane;html=1;startSize=20;horizontal=0;" vertex="1" parent="JzyulNl6e5APR63eF1yB-1">
          <mxGeometry y="260" width="1180" height="120" as="geometry" />
        </mxCell>
      </root>
    </mxGraphModel>
  </diagram>
</mxfile>
